<svg id="Capa_1" enable-background="new 0 0 511.714 511.714" height="512" viewBox="0 0 511.714 511.714" width="512" xmlns="http://www.w3.org/2000/svg"><g><path d="m497.779 156.675-76.104-76.104c-14.374-14.375-31.361-24.357-48.101-31.27-38.26-12.314-77.982-18.466-117.717-18.475-39.735.01-79.456 6.161-117.717 18.475-16.739 6.913-33.726 16.895-48.101 31.27l-76.104 76.104c-8.58 8.58-8.58 22.491 0 31.071l39.37 39.37c8.58 8.58 22.491 8.58 31.07 0l35.565-35.565v162.757c0 32.13 13.163 62.857 36.423 85.023l2.44 2.325c55.965 53.333 144.297 52.144 198.807-2.676 21.882-22.006 34.164-51.778 34.164-82.811v-164.618l35.565 35.565c8.58 8.58 22.491 8.58 31.071 0l39.37-39.37c8.579-8.58 8.579-22.491-.001-31.071z" fill="#ad7fdd"/></g><g><path d="m391.774 201.551c-14.759-4.92-30 6.066-30 21.623v132.995c0 31.033-12.282 60.805-34.164 82.811-23.942 24.078-54.409 37.806-85.792 41.116 41.373 4.372 84.246-9.391 115.792-41.116 21.882-22.006 34.164-51.778 34.164-82.811z" fill="#9d66d6"/></g><g><path d="m497.779 156.675-76.104-76.104c-14.374-14.375-31.361-24.357-48.101-31.27-38.26-12.314-77.982-18.466-117.717-18.475-5.001.001-10.002.101-15 .296 34.711 1.36 69.272 7.415 102.717 18.179 16.739 6.913 33.726 16.895 48.101 31.27l76.104 76.104c8.58 8.58 8.58 22.491 0 31.071l-39.37 39.37c-.172.172-.359.319-.535.484 8.613 8.071 22.127 7.924 30.535-.484l39.37-39.37c8.58-8.58 8.58-22.491 0-31.071z" fill="#9d66d6"/></g><g><path d="m194.906 35.706c2.489 31.495 28.817 56.283 60.951 56.283 32.135 0 58.463-24.788 60.952-56.283-20.184-3.241-40.565-4.875-60.952-4.88-20.386.005-40.768 1.639-60.951 4.88z" fill="#8858b9"/></g><g><path d="m285.072 167.884c-11.844 0-22.427 5.39-29.436 13.849-7.009-8.459-17.592-13.849-29.436-13.849-21.103 0-38.21 17.107-38.21 38.21 0 7.216 2.001 13.966 5.477 19.723 6.69 11.079 31.492 31.457 62.169 39.966 30.366-9.646 55.487-28.892 62.176-39.977 3.472-5.755 5.47-12.5 5.47-19.712 0-21.103-17.107-38.21-38.21-38.21z" fill="#faf8f8"/></g><g><path d="m285.072 167.884c-5.323 0-10.388 1.097-14.992 3.064 13.642 5.833 23.202 19.372 23.202 35.146 0 7.212-1.998 13.957-5.47 19.712-5.589 9.263-24.054 24.221-47.691 34.518 4.949 2.106 10.139 3.968 15.516 5.459 30.366-9.646 55.487-28.892 62.176-39.977 3.472-5.755 5.47-12.5 5.47-19.712-.001-21.103-17.108-38.21-38.211-38.21z" fill="#f0e9e6"/></g><g><path d="m391.774 354.682c-8.985-3.31-18.694-5.12-28.828-5.12-46.063 0-83.404 37.341-83.404 83.404 0 15.969 4.495 30.886 12.278 43.566 24.144-6.109 46.98-18.636 65.789-37.552 21.882-22.006 34.164-51.778 34.164-82.811v-1.487z" fill="#8858b9"/></g><g><path d="m148.768 349.562c-10.132 0-19.84 1.81-28.823 5.118.101 31.995 13.248 62.57 36.418 84.65l2.44 2.325c17.872 17.032 39.048 28.493 61.366 34.434 7.616-12.584 12.003-27.341 12.003-43.123 0-46.063-37.341-83.404-83.404-83.404z" fill="#8858b9"/></g><g><path d="m255.636 273.283c-.674 0-1.349-.091-2.005-.273-18.457-5.12-33.218-13.747-42.35-20.084-10.999-7.631-20.058-16.316-24.234-23.231-4.29-7.105-6.557-15.265-6.557-23.6 0-25.205 20.505-45.71 45.71-45.71 10.891 0 21.26 3.841 29.436 10.736 8.176-6.895 18.545-10.736 29.436-10.736 25.205 0 45.71 20.506 45.71 45.71 0 8.33-2.265 16.486-6.549 23.586-8.138 13.488-35.172 33.354-66.326 43.25-.738.234-1.504.352-2.271.352zm-29.436-97.9c-16.934 0-30.71 13.777-30.71 30.71 0 5.602 1.521 11.082 4.397 15.847 4.924 8.155 26.772 27.366 55.597 35.993 18.35-6.303 47.458-22.001 55.905-36.003 2.874-4.762 4.393-10.238 4.393-15.837 0-16.934-13.776-30.71-30.71-30.71-9.174 0-17.798 4.058-23.661 11.134-1.425 1.72-3.542 2.715-5.775 2.715s-4.351-.995-5.775-2.715c-5.863-7.075-14.487-11.134-23.661-11.134z"/></g><g fill="#18191b"><path d="m503.082 151.372-76.104-76.104c-13.592-13.593-30.597-24.662-50.542-32.899-.186-.077-.374-.146-.565-.207-38.802-12.489-79.181-18.826-120.017-18.836-40.832.01-81.21 6.347-120.013 18.836-.191.062-.379.13-.565.207-19.944 8.237-36.949 19.307-50.54 32.899l-76.104 76.104c-5.566 5.567-8.632 12.967-8.632 20.839s3.066 15.272 8.632 20.838l39.37 39.37c11.491 11.491 30.188 11.49 41.677 0l22.761-22.761v76.391c0 4.142 3.358 7.5 7.5 7.5s7.5-3.358 7.5-7.5v-94.498c0-3.033-1.827-5.768-4.63-6.929-2.802-1.16-6.028-.519-8.173 1.626l-35.564 35.565c-5.643 5.641-14.822 5.641-20.464 0l-39.37-39.37c-2.734-2.733-4.239-6.367-4.239-10.232s1.505-7.499 4.238-10.232l76.104-76.104c12.127-12.128 27.395-22.061 45.384-29.527 15.644-5.021 31.557-8.989 47.653-11.919 5.912 31.847 33.741 55.061 67.477 55.061s61.566-23.214 67.477-55.061c16.096 2.93 32.009 6.898 47.653 11.919 17.99 7.467 33.257 17.4 45.384 29.527l76.104 76.104c2.733 2.733 4.238 6.367 4.238 10.232s-1.505 7.499-4.238 10.232l-39.37 39.37c-5.641 5.642-14.821 5.642-20.464 0l-35.564-35.565c-2.144-2.145-5.371-2.786-8.173-1.626-2.803 1.161-4.63 3.896-4.63 6.929v19.916c0 4.142 3.358 7.5 7.5 7.5s7.5-3.358 7.5-7.5v-1.809l22.761 22.761c11.491 11.491 30.188 11.49 41.677 0l39.37-39.37c5.566-5.566 8.632-12.967 8.632-20.839s-3.065-15.272-8.631-20.838zm-247.225-66.883c-26.241 0-47.899-17.877-52.659-42.456 17.399-2.454 34.983-3.703 52.657-3.708 17.676.004 35.261 1.254 52.661 3.708-4.76 24.579-26.418 42.456-52.659 42.456z"/><path d="m391.774 233.967c-4.142 0-7.5 3.358-7.5 7.5v103.15c-6.952-1.681-14.087-2.555-21.328-2.555-50.125 0-90.904 40.779-90.904 90.904 0 13.314 2.918 26.386 8.483 38.34-7.16 1.267-14.469 1.97-21.874 2.069-.62.008-1.235.013-1.854.013-8.629 0-17.144-.814-25.457-2.403 5.467-11.865 8.331-24.829 8.331-38.019 0-50.125-40.779-90.904-90.904-90.904-7.241 0-14.377.865-21.328 2.54v-28.554c0-4.142-3.358-7.5-7.5-7.5s-7.5 3.358-7.5 7.5v38.26c0 34.016 14.124 66.985 38.749 90.453l2.44 2.325c27.998 26.681 64.562 41.303 103.164 41.303.685 0 1.373-.005 2.06-.014 39.359-.53 76.32-16.194 104.075-44.107 23.438-23.571 36.346-54.859 36.346-88.099v-114.702c.001-4.142-3.357-7.5-7.499-7.5zm-230.236 199.935c-20.275-19.322-32.458-45.962-33.942-73.828 6.852-1.989 13.948-3.011 21.173-3.011 41.854 0 75.904 34.05 75.904 75.904 0 11.966-2.817 23.706-8.177 34.284-19.44-6.088-37.374-16.592-52.518-31.024zm190.754-.211c-16.054 16.145-35.534 27.726-56.807 34.072-5.535-10.714-8.443-22.634-8.443-34.798 0-41.854 34.05-75.904 75.904-75.904 7.251 0 14.375 1.026 21.252 3.03-.97 27.782-12.208 53.789-31.906 73.6z"/><path d="m307.885 316.477c4.142 0 7.5-3.358 7.5-7.5s-3.358-7.5-7.5-7.5h-104.056c-4.142 0-7.5 3.358-7.5 7.5s3.358 7.5 7.5 7.5z"/></g></svg>