<svg id="Capa_1" enable-background="new 0 0 510.652 510.652" height="512" viewBox="0 0 510.652 510.652" width="512" xmlns="http://www.w3.org/2000/svg"><g><g><path d="m387.142 16.543c-12.632-12.036-32.487-12.036-45.118 0-10.297 9.812-13.072 25.154-6.864 37.95 5.126 10.565 5.902 22.72 2.162 33.851l-9.952 29.619h37.213 37.213l-9.952-29.619c-3.74-11.131-2.964-23.286 2.162-33.851 6.208-12.796 3.433-28.139-6.864-37.95z" fill="#ffcdbe"/></g><g><path d="m474.729 459.104-28.099-124.324c-2.489-11.012-2.455-22.444.099-33.441l9.488-40.856c5.462-23.523-3.294-48.07-22.41-62.826-4.336-3.347-7.463-8.014-8.909-13.297l-.746-2.725h-59.569-59.569l-.746 2.725c-1.446 5.282-4.574 9.95-8.909 13.297-19.116 14.755-27.872 39.303-22.41 62.826l9.488 40.856c2.554 10.997 2.587 22.429.099 33.441l-28.099 124.323c-2.592 11.468.565 23.48 8.461 32.193 6.842 7.549 16.555 11.855 26.743 11.855h74.942 74.943c10.188 0 19.902-4.306 26.743-11.855 7.895-8.712 11.052-20.724 8.46-32.192z" fill="#edf6ff"/></g><g><path d="m474.729 459.104-28.099-124.324c-2.489-11.012-2.455-22.444.099-33.441l9.488-40.856c5.462-23.523-3.294-48.07-22.41-62.826-4.336-3.346-7.463-8.014-8.909-13.297l-.746-2.725h-30.375l.746 2.725c1.446 5.282 4.574 9.95 8.909 13.297 19.116 14.756 27.872 39.303 22.41 62.826l-9.488 40.856c-2.554 10.997-2.587 22.429-.099 33.441l28.098 124.323c2.592 11.468-.565 23.48-8.461 32.193-6.841 7.549-16.555 11.856-26.743 11.856h30.375c10.188 0 19.902-4.306 26.743-11.856 7.897-8.712 11.054-20.724 8.462-32.192z" fill="#ddebfd"/></g><g><path d="m423.692 114.632c-1.312-13.608-12.746-23.994-26.418-23.994h-32.691-32.691c-13.671 0-25.106 10.385-26.418 23.994-.734 7.62-4.724 14.552-10.943 19.016l-18.829 13.513c-5.17 3.71-8.236 9.684-8.236 16.047v18.237c0 10.909 8.843 19.752 19.752 19.752h77.366 77.366c10.909 0 19.751-8.843 19.751-19.752v-18.237c0-6.363-3.066-12.337-8.236-16.047l-18.829-13.513c-6.221-4.464-10.21-11.396-10.944-19.016z" fill="#9ec8fc"/></g><g><path d="m453.464 147.16-18.829-13.513c-6.22-4.464-10.209-11.396-10.944-19.016-1.312-13.608-12.746-23.994-26.418-23.994h-30c13.671 0 25.106 10.385 26.418 23.994.734 7.62 4.724 14.552 10.944 19.016l18.829 13.513c5.17 3.71 8.236 9.684 8.236 16.047v18.237c0 10.908-8.843 19.752-19.752 19.752h30c10.908 0 19.752-8.843 19.752-19.752v-18.237c0-6.363-3.066-12.337-8.236-16.047z" fill="#80b6fc"/></g><g><path d="m267.465 163.971v17.473c0 10.908 8.843 19.752 19.751 19.752h154.732c10.908 0 19.751-8.843 19.751-19.752v-17.473z" fill="#5392f9"/></g><g><path d="m431.7 163.971v17.473c0 10.908-8.843 19.752-19.751 19.752h30c10.909 0 19.751-8.843 19.751-19.752v-17.473z" fill="#4071f7"/></g><g><path d="m200.93 347.549-7.48-14.523c-8.042-15.614-24.133-25.427-41.697-25.427h-19.883-19.884c-17.563 0-33.655 9.813-41.697 25.427l-7.48 14.523c-16.085 31.232-25.039 65.644-26.216 100.754l-1.555 46.366c-.076 2.269 1.743 4.15 4.014 4.15h92.817 92.817c2.271 0 4.09-1.881 4.014-4.15l-1.554-46.365c-1.177-35.111-10.131-69.523-26.216-100.755z" fill="#80b6fc"/></g><g><path d="m227.146 448.304c-1.177-35.111-10.131-69.523-26.216-100.754l-7.48-14.523c-8.042-15.614-24.133-25.427-41.697-25.427h-19.883-10.117c17.564 0 33.655 9.813 41.697 25.427l7.48 14.523c16.085 31.232 25.039 65.644 26.216 100.754l1.554 46.365c.076 2.269-1.743 4.15-4.014 4.15h30c2.271 0 4.09-1.881 4.014-4.15z" fill="#62a4fb"/></g><g><path d="m36.507 450.904-1.467 43.765c-.076 2.269 1.743 4.15 4.014 4.15h185.634c2.271 0 4.09-1.881 4.014-4.15l-1.467-43.765z" fill="#4981f8"/></g><g><path d="m227.234 450.904h-30l1.467 43.765c.076 2.269-1.743 4.15-4.014 4.15h30c2.271 0 4.09-1.881 4.014-4.15z" fill="#4071f7"/></g><g><path d="m207.598 344.115-7.48-14.523c-9.37-18.192-27.902-29.493-48.365-29.493h-39.767c-20.463 0-38.995 11.301-48.365 29.493l-7.479 14.523c-16.486 32.011-25.838 67.952-27.044 103.937l-1.513 45.115-.042 1.25c-.103 3.102 1.074 6.16 3.231 8.391s5.175 3.511 8.278 3.511h185.634c3.104 0 6.121-1.28 8.278-3.511s3.335-5.29 3.232-8.391l-1.554-46.366c-1.206-35.985-10.559-71.926-27.044-103.936zm-164.942 147.205 1.105-32.915h33.265c4.143 0 7.5-3.358 7.5-7.5s-3.357-7.5-7.5-7.5h-32.69c1.81-32.051 10.453-63.898 25.142-92.421l7.479-14.523c6.786-13.176 20.208-21.361 35.029-21.361h39.767c14.821 0 28.243 8.185 35.029 21.361l7.48 14.523c14.69 28.522 23.332 60.369 25.143 92.421h-112.38c-4.143 0-7.5 3.358-7.5 7.5s3.357 7.5 7.5 7.5h112.956l1.104 32.915z"/><path d="m347.916 263.138h33.333c4.143 0 7.5-3.358 7.5-7.5s-3.357-7.5-7.5-7.5h-33.333c-4.143 0-7.5 3.358-7.5 7.5s3.358 7.5 7.5 7.5z"/><path d="m381.457 281.832h-33.75c-4.142 0-7.5 3.358-7.5 7.5s3.358 7.5 7.5 7.5h33.75c4.143 0 7.5-3.358 7.5-7.5 0-4.143-3.357-7.5-7.5-7.5z"/><path d="m381.457 318.619h-33.75c-4.142 0-7.5 3.358-7.5 7.5s3.358 7.5 7.5 7.5h33.75c4.143 0 7.5-3.358 7.5-7.5s-3.357-7.5-7.5-7.5z"/><path d="m381.457 355.407h-33.75c-4.142 0-7.5 3.358-7.5 7.5s3.358 7.5 7.5 7.5h33.75c4.143 0 7.5-3.358 7.5-7.5 0-4.143-3.357-7.5-7.5-7.5z"/><path d="m482.044 457.45-28.099-124.323c-2.226-9.851-2.195-20.256.089-30.091l9.487-40.856c4.483-19.302.296-39.676-10.948-55.642 9.762-4.149 16.626-13.835 16.626-25.094v-17.473-.764c0-8.758-4.248-17.035-11.362-22.14l-18.829-13.513c-4.463-3.202-7.324-8.175-7.851-13.642-1.663-17.254-15.782-30.327-33.015-30.754-2.149-8.507-1.257-17.419 2.611-25.391 7.663-15.794 4.273-34.543-8.438-46.654-15.553-14.817-39.915-14.817-55.466 0-12.71 12.11-16.101 30.858-8.439 46.654 3.868 7.973 4.761 16.884 2.612 25.391-17.232.427-31.352 13.499-33.014 30.753-.528 5.468-3.39 10.441-7.853 13.643l-18.829 13.513c-7.114 5.106-11.362 13.382-11.362 22.14v.764 17.473c0 11.256 6.861 20.939 16.619 25.091-11.254 15.961-15.435 36.293-10.941 55.645l9.487 40.856c2.284 9.837 2.315 20.242.089 30.091l-28.098 124.323c-3.127 13.836.693 28.371 10.219 38.882 8.247 9.1 20.02 14.319 32.301 14.319h58.067 33.75 58.067c12.281 0 24.055-5.219 32.302-14.319 9.526-10.51 13.345-25.045 10.218-38.882zm-134.846-435.478c9.748-9.289 25.022-9.289 34.77 0 7.968 7.592 10.094 19.346 5.289 29.247-4.867 10.032-6.381 21.127-4.461 31.918h-36.426c1.919-10.791.405-21.886-4.462-31.918-4.804-9.901-2.678-21.655 5.29-29.247zm-72.233 149.499h7.642c4.143 0 7.5-3.358 7.5-7.5s-3.357-7.5-7.5-7.5h-5.613c.814-1.236 1.849-2.334 3.079-3.217l18.829-13.513c7.978-5.725 13.094-14.615 14.037-24.39.945-9.813 9.093-17.213 18.951-17.213h65.383c9.859 0 18.007 7.4 18.952 17.213.942 9.774 6.059 18.664 14.036 24.39l18.829 13.513c1.231.883 2.266 1.981 3.08 3.217h-139.563c-4.142 0-7.5 3.358-7.5 7.5s3.358 7.5 7.5 7.5h141.593v9.973c0 6.755-5.496 12.252-12.251 12.252h-154.732c-6.756 0-12.252-5.496-12.252-12.252zm185.746 314.789c-5.409 5.969-13.132 9.392-21.186 9.392h-58.067-33.75-58.068c-8.055 0-15.776-3.423-21.186-9.392-6.248-6.894-8.754-16.428-6.703-25.503l28.099-124.323c2.722-12.042 2.685-24.764-.108-36.791l-9.487-40.857c-4.165-17.937 1.18-36.951 13.965-50.091h140.72c12.775 13.127 18.126 32.197 13.97 50.091l-9.487 40.857c-2.792 12.025-2.83 24.747-.108 36.79l28.099 124.323c2.05 9.076-.455 18.61-6.703 25.504z"/></g></g></svg>