<svg id="Capa_1" enable-background="new 0 0 510.151 510.151" height="512" viewBox="0 0 510.151 510.151" width="512" xmlns="http://www.w3.org/2000/svg"><g><g><path d="m468.865 301.336h-427.579c-12.096 0-21.902-9.806-21.902-21.902 0-12.096 9.806-21.902 21.902-21.902h427.578c12.096 0 21.902 9.806 21.902 21.902.001 12.096-9.805 21.902-21.901 21.902z" fill="#e592b8"/></g><g><path d="m120.677 301.336v29.813 37.103c0 74.226 60.172 134.399 134.399 134.399s134.399-60.172 134.399-134.399v-37.103-29.813zm134.398 141.081c-76.671 0-101.343-49.873-101.559-111.268h203.118c-.215 61.395-24.583 111.268-101.559 111.268z" fill="#80b6fc"/></g><g><path d="m343.487 95.912c0-49.248-40.266-89.091-89.671-88.403-48.512.675-87.716 40.95-87.146 89.463.176 14.956 4.066 29.017 10.79 41.307 16.401 29.975 25.425 63.424 25.425 97.593v21.661h104.38v-23.456c0-33.49 9.085-66.192 25.268-95.512 6.981-12.648 10.954-27.186 10.954-42.653z" fill="#ffdecf"/></g><g><path d="m253.816 7.509c-4.665.065-9.242.499-13.708 1.269 41.668 7.138 73.379 43.431 73.379 87.134 0 15.467-3.973 30.006-10.953 42.652-16.184 29.32-25.268 62.022-25.268 95.512v23.456h30v-23.456c0-33.49 9.085-66.192 25.268-95.512 6.98-12.646 10.953-27.185 10.953-42.652 0-49.248-40.266-89.091-89.671-88.403z" fill="#ffcdbe"/></g><g><path d="m281.477 364.137h-52.803c-16.347 0-29.598-13.252-29.598-29.598v-33.203h112v33.203c-.001 16.347-13.252 29.598-29.599 29.598z" fill="#bed9fd"/></g><g><path d="m468.865 250.032h-154.099v-15.956c0-31.271 8.415-63.046 24.335-91.888 7.776-14.09 11.887-30.092 11.887-46.276 0-25.871-10.145-50.125-28.568-68.293-18.42-18.165-42.844-27.969-68.708-27.61-52.75.734-95.161 44.271-94.54 97.05.184 15.656 4.232 31.154 11.71 44.818 16.03 29.298 24.504 61.8 24.504 93.993v14.161h-73.898c-4.143 0-7.5 3.358-7.5 7.5s3.357 7.5 7.5 7.5h347.378c7.941 0 14.402 6.461 14.402 14.402s-6.461 14.402-14.402 14.402h-427.58c-7.941 0-14.402-6.461-14.402-14.402s6.461-14.402 14.402-14.402h50.2c4.143 0 7.5-3.358 7.5-7.5s-3.357-7.5-7.5-7.5h-50.2c-16.213 0-29.402 13.19-29.402 29.402s13.19 29.402 29.402 29.402h71.891v59.416c0 78.243 63.655 141.899 141.898 141.899 32.765 0 64.73-11.433 90.005-32.193 3.201-2.629 3.665-7.355 1.036-10.556-2.631-3.201-7.356-3.664-10.556-1.035-22.6 18.562-51.184 28.784-80.485 28.784-69.972 0-126.898-56.926-126.898-126.899v-59.416h63.398v14.813h-38.06c-1.994 0-3.905.794-5.313 2.206-1.407 1.412-2.194 3.327-2.188 5.32.124 35.324 8.1 63.335 23.705 83.256 18.445 23.546 47.163 35.486 85.354 35.486 71.074 0 108.786-41.06 109.06-118.741.007-1.994-.78-3.908-2.188-5.32-1.407-1.412-3.318-2.206-5.313-2.206h-38.06v-14.813h63.398v59.416c0 29.023-10.049 57.394-28.295 79.886-2.609 3.217-2.117 7.94 1.1 10.55 1.39 1.127 3.06 1.676 4.72 1.676 2.183 0 4.347-.948 5.829-2.775 20.407-25.156 31.646-56.883 31.646-89.336v-59.416h71.891c16.213 0 29.402-13.19 29.402-29.402s-13.186-29.403-29.398-29.403zm-258.48 0v-14.161c0-34.702-9.11-69.694-26.346-101.193-6.302-11.517-9.715-24.586-9.87-37.794-.523-44.527 35.253-81.256 79.751-81.876 21.853-.297 42.429 7.968 57.967 23.291 15.541 15.327 24.101 35.787 24.101 57.613 0 13.655-3.465 27.151-10.02 39.028-17.142 31.056-26.202 65.337-26.202 99.136v15.956zm118.346 155.156c-15.417 19.727-40.197 29.729-73.655 29.729-33.345 0-58.09-10.005-73.546-29.736-12.42-15.854-19.255-38.21-20.356-66.532h30.635c2.053 18.528 17.8 32.988 36.866 32.988h52.803c19.066 0 34.813-14.46 36.866-32.988h30.636c-1.096 28.371-7.895 50.73-20.249 66.539zm-25.156-70.649c0 12.185-9.913 22.098-22.099 22.098h-52.803c-12.186 0-22.099-9.913-22.099-22.098v-25.702h97v25.702z"/></g></g></svg>