<svg id="Capa_1" enable-background="new 0 0 507.087 507.087" height="512" viewBox="0 0 507.087 507.087" width="512" xmlns="http://www.w3.org/2000/svg"><g><g><path d="m213.563 191.636v-170.458c0-7.959-6.776-14.262-14.711-13.636-95.291 7.514-170.335 86.987-170.825 184.094" fill="#9ec8fc"/></g><g><path d="m198.852 7.542c-6.989.551-13.866 1.5-20.616 2.804 3.226 2.495 5.327 6.405 5.327 10.832v170.458h30v-170.458c0-7.959-6.777-14.262-14.711-13.636z" fill="#80b6fc"/></g><g><path d="m347.275 339.401h-245.307c-40.837 0-73.942-33.105-73.942-73.942v-73.824h393.19v73.824c.001 40.837-33.104 73.942-73.941 73.942z" fill="#ddebfd"/></g><g><path d="m391.216 191.636v73.824c0 40.837-33.105 73.942-73.942 73.942h30c40.837 0 73.942-33.105 73.942-73.942v-73.824z" fill="#bed9fd"/></g><g><path d="m117.957 416.6h224.823v47.198h-224.823z" fill="#b4aaaa"/></g><g><path d="m28.111 265.195c1.755 41.277 35.76 74.206 77.469 74.206h238.082c41.709 0 75.715-32.929 77.47-74.206z" fill="#bed9fd"/></g><g><path d="m391.132 265.195c-1.755 41.277-35.76 74.207-77.469 74.207h30c41.709 0 75.715-32.929 77.469-74.207z" fill="#9ec8fc"/></g><g><path d="m29.063 191.636c-.011.378-.028.754-.028 1.134 0 21.66 17.559 39.218 39.218 39.218 21.66 0 39.218-17.559 39.218-39.218 0-.38-.018-.756-.029-1.134z" fill="#e592b8"/></g><g><path d="m107.499 191.636c-.011.378-.029.754-.029 1.134 0 21.66 17.559 39.218 39.218 39.218 21.66 0 39.218-17.559 39.218-39.218 0-.38-.018-.756-.029-1.134z" fill="#e592b8"/></g><g><path d="m342.809 191.636c-.011.378-.029.754-.029 1.134 0 21.66 17.559 39.218 39.218 39.218s39.218-17.559 39.218-39.218c0-.38-.018-.756-.029-1.134z" fill="#e592b8"/></g><g><path d="m264.372 191.636c-.011.378-.029.754-.029 1.134 0 21.66 17.559 39.218 39.218 39.218 21.66 0 39.218-17.559 39.218-39.218 0-.38-.018-.756-.028-1.134z" fill="#e592b8"/></g><g><path d="m185.936 191.636c-.011.378-.029.754-.029 1.134 0 21.66 17.559 39.218 39.218 39.218 21.66 0 39.218-17.559 39.218-39.218 0-.38-.018-.756-.029-1.134z" fill="#e592b8"/></g><g><ellipse cx="94.573" cy="449.535" fill="#ffeee5" rx="50.052" ry="50.052" transform="matrix(.23 -.973 .973 .23 -364.665 438.297)"/></g><g><ellipse cx="94.573" cy="449.535" fill="#b4aaaa" rx="16.448" ry="16.448" transform="matrix(.23 -.973 .973 .23 -364.665 438.297)"/></g><g><ellipse cx="366.55" cy="449.535" fill="#ffeee5" rx="50.052" ry="50.052" transform="matrix(.383 -.924 .924 .383 -189.039 616.154)"/></g><g><ellipse cx="366.55" cy="449.535" fill="#b4aaaa" rx="16.448" ry="16.448" transform="matrix(.973 -.23 .23 .973 -93.476 96.241)"/></g><g><path d="m468.376 101.847h-55.126c-5.901 0-10.685-4.784-10.685-10.685v-14.211c0-5.901 4.784-10.685 10.685-10.685h55.126c5.901 0 10.685 4.784 10.685 10.685v14.211c0 5.901-4.784 10.685-10.685 10.685z" fill="#80b6fc"/></g><g><path d="m94.573 425.587c-13.205 0-23.948 10.743-23.948 23.948s10.743 23.948 23.948 23.948 23.948-10.743 23.948-23.948c0-13.204-10.743-23.948-23.948-23.948zm0 32.896c-4.934 0-8.948-4.014-8.948-8.948s4.014-8.948 8.948-8.948 8.948 4.014 8.948 8.948-4.014 8.948-8.948 8.948z"/><path d="m366.55 473.483c13.205 0 23.948-10.743 23.948-23.948s-10.743-23.948-23.948-23.948-23.948 10.743-23.948 23.948 10.743 23.948 23.948 23.948zm0-32.896c4.934 0 8.948 4.014 8.948 8.948s-4.015 8.948-8.948 8.948-8.948-4.014-8.948-8.948c0-4.933 4.014-8.948 8.948-8.948z"/><path d="m468.375 58.766h-55.126c-9.738 0-17.689 7.7-18.141 17.328-20.181 1.792-36.058 18.783-36.058 39.421v68.622h-137.987v-162.959c0-5.891-2.482-11.563-6.809-15.563-4.314-3.988-10.146-6.014-15.991-5.549-48.119 3.794-92.816 25.39-125.857 60.81-33.209 35.599-51.632 82.023-51.878 130.723 0 .007.001.013.001.02 0 .006-.001.012-.001.018v73.823c0 44.907 36.535 81.442 81.441 81.442h3.613 57l-55.887 46.377c-3.91-.842-7.962-1.295-12.12-1.295-31.734 0-57.552 25.817-57.552 57.552 0 31.734 25.817 57.552 57.552 57.552 24.035 0 44.665-14.815 53.266-35.789h165.445c8.601 20.974 29.231 35.789 53.266 35.789 31.734 0 57.552-25.818 57.552-57.552s-25.817-57.552-57.552-57.552c-4.158 0-8.21.454-12.121 1.295l-55.887-46.377h45.12 3.612c44.907 0 81.442-36.535 81.442-81.442v-73.823c0-4.142-3.357-7.5-7.5-7.5-.005 0-.01.001-.014.001-.005 0-.01-.001-.015-.001h-47.139v-68.622c0-12.344 9.146-22.589 21.016-24.324.016 10.014 8.165 18.157 18.183 18.157h55.126c10.027 0 18.186-8.158 18.186-18.185v-14.212c0-10.028-8.158-18.185-18.186-18.185zm-133.737 140.37c-2.956 14.449-15.767 25.352-31.076 25.352-15.31 0-28.12-10.903-31.076-25.352zm-121.075 0h42.64c-2.956 14.449-15.768 25.352-31.077 25.352s-28.121-10.903-31.076-25.352zm-14.122-184.117c1.717-.135 3.36.438 4.631 1.612 1.283 1.186 1.99 2.801 1.99 4.547v141.829l-72.805-129.42c20.462-10.361 42.887-16.731 66.184-18.568zm-116.068 56.088c10.988-11.779 23.378-21.89 36.803-30.182l75.809 134.761-141.803-62.542c7.579-15.198 17.367-29.362 29.191-42.037zm-35.313 55.731 129.913 57.298h-70.473-.058-71.72c.932-19.831 5.137-39.16 12.338-57.298zm129.705 72.298c-2.956 14.449-15.767 25.352-31.076 25.352s-28.121-10.903-31.076-25.352zm-78.436 0c-2.955 14.449-15.767 25.352-31.076 25.352-15.31 0-28.121-10.903-31.076-25.352zm-4.756 292.951c-23.463 0-42.552-19.089-42.552-42.552s19.089-42.552 42.552-42.552 42.552 19.089 42.552 42.552-19.089 42.552-42.552 42.552zm314.529-42.552c0 23.463-19.089 42.552-42.552 42.552s-42.552-19.089-42.552-42.552 19.089-42.552 42.552-42.552 42.552 19.089 42.552 42.552zm-132.762-101.567 61.987 51.439c-4.685 2.648-8.967 5.927-12.721 9.732-.254-.026-.512-.04-.774-.04h-90.63c-4.142 0-7.5 3.358-7.5 7.5s3.358 7.5 7.5 7.5h80.739c-3.798 7.675-5.943 16.308-5.943 25.435 0 2.289.149 4.543.411 6.763h-157.695c.261-2.22.411-4.474.411-6.763 0-9.128-2.145-17.76-5.943-25.435h58.02c4.142 0 7.5-3.358 7.5-7.5s-3.358-7.5-7.5-7.5h-68.722c-3.745-3.788-8.014-7.053-12.683-9.692l63.273-52.506h89.219c.308.383.658.741 1.051 1.067zm-170.759-16.067c-34.988 0-64.011-25.438-69.212-59.207h163.999c4.142 0 7.5-3.358 7.5-7.5s-3.358-7.5-7.5-7.5h-164.841v-31.626c8.436 8.292 19.991 13.419 32.726 13.419 16.424 0 30.886-8.527 39.218-21.379 8.333 12.852 22.794 21.379 39.218 21.379s30.886-8.527 39.218-21.379c8.333 12.852 22.794 21.379 39.218 21.379s30.886-8.527 39.219-21.379c8.332 12.852 22.793 21.379 39.218 21.379 16.424 0 30.885-8.527 39.218-21.379 8.333 12.852 22.794 21.379 39.219 21.379 12.235 0 23.381-4.734 31.719-12.459v30.665h-183.35c-4.142 0-7.5 3.358-7.5 7.5s3.358 7.5 7.5 7.5h182.506c-5.201 33.769-34.225 59.207-69.212 59.207h-238.081zm276.417-107.413c-15.31 0-28.121-10.903-31.077-25.352h62.154c-2.956 14.449-15.767 25.352-31.077 25.352zm89.563-133.326c0 1.756-1.429 3.185-3.186 3.185h-55.126c-1.756 0-3.185-1.429-3.185-3.185v-14.211c0-1.756 1.429-3.185 3.185-3.185h55.126c1.757 0 3.186 1.429 3.186 3.185z"/></g></g></svg>