<svg id="Capa_1" enable-background="new 0 0 490.073 490.073" height="512" viewBox="0 0 490.073 490.073" width="512"
    xmlns="http://www.w3.org/2000/svg">
    <g>
        <path d="m295.337 143.346h97.266v91.48h-97.266z" fill="#5392f9" />
        <path
            d="m392.603 238.23h-97.266c-1.88 0-3.403-1.524-3.403-3.403v-91.48c0-1.88 1.524-3.403 3.403-3.403h97.266c1.88 0 3.403 1.524 3.403 3.403v91.48c0 1.879-1.523 3.403-3.403 3.403zm-93.863-6.807h90.46v-84.673h-90.46z"
            fill="#323c6b" />
        <path
            d="m392.603 238.23h-97.266c-1.88 0-3.403-1.524-3.403-3.403v-91.48c0-1.88 1.524-3.403 3.403-3.403h97.266c1.88 0 3.403 1.524 3.403 3.403v91.48c0 1.879-1.523 3.403-3.403 3.403zm-93.863-6.807h90.46v-84.673h-90.46z"
            fill="#323c6b" />
        <path d="m372.183 143.346h20.42v91.48h-20.42z" fill="#4071f7" />
        <path d="m295.337 365.853h97.266v100.397h-97.266z" fill="#5392f9" />
        <path
            d="m392.603 469.653h-97.266c-1.88 0-3.403-1.524-3.403-3.403v-100.397c0-1.88 1.524-3.403 3.403-3.403h97.266c1.88 0 3.403 1.524 3.403 3.403v100.397c0 1.88-1.523 3.403-3.403 3.403zm-93.863-6.806h90.46v-93.59h-90.46z"
            fill="#323c6b" />
        <path d="m372.183 365.853h20.42v100.397h-20.42z" fill="#4071f7" />
        <path d="m97.47 143.346h197.867v322.904h-197.867z" fill="#5392f9" />
        <path
            d="m295.337 469.653h-197.867c-1.88 0-3.403-1.524-3.403-3.403v-322.904c0-1.88 1.524-3.403 3.403-3.403h197.867c1.88 0 3.403 1.524 3.403 3.403v322.904c0 1.88-1.523 3.403-3.403 3.403zm-194.464-6.806h191.06v-316.097h-191.06z"
            fill="#323c6b" />
        <path d="m345.706 67.113-50.369 76.233h-197.867l46.897-76.233z" fill="#5392f9" />
        <path
            d="m295.337 146.75h-197.867c-1.88.001-3.404-1.523-3.404-3.402 0-.63.175-1.248.505-1.784l46.897-76.234c.62-1.007 1.717-1.62 2.9-1.62h201.338c1.88.002 3.402 1.528 3.399 3.407-.001.664-.196 1.313-.561 1.868l-50.369 76.234c-.628.954-1.695 1.529-2.838 1.531zm-191.782-6.807h189.951l45.869-69.427h-193.109z"
            fill="#323c6b" />
        <path d="m325.286 67.113-50.369 76.233h20.42l50.369-76.233z" fill="#4071f7" />
        <path d="m392.603 143.346h-97.266l50.369-76.233z" fill="#eeefee" />
        <path
            d="m392.603 146.75h-97.266c-1.88-.002-3.402-1.528-3.399-3.407.001-.664.196-1.313.561-1.868l50.369-76.234c.605-1.008 1.719-1.598 2.893-1.531 1.16.021 2.23.631 2.838 1.62l46.897 76.234c.985 1.601.486 3.697-1.115 4.682-.537.33-1.154.505-1.784.505h.006zm-90.936-6.807h84.851l-40.914-66.5z"
            fill="#323c6b" />
        <path d="m345.706 67.113-10.578 16.002 37.055 60.231h20.42z" fill="#dbd8dd" />
        <path
            d="m345.706 18.99v48.122h-201.339v-48.122c.037-8.619 7.036-15.587 15.655-15.587h170.028c8.62 0 15.618 6.968 15.656 15.587z"
            fill="#b6d2dd" />
        <path
            d="m345.706 70.516h-201.339c-1.88 0-3.403-1.524-3.403-3.403v-48.123c.038-10.499 8.559-18.99 19.058-18.99h170.028c10.499 0 19.021 8.491 19.058 18.99v48.122c.001 1.88-1.523 3.404-3.402 3.404zm-197.935-6.807h194.532v-44.719c-.037-6.74-5.512-12.184-12.252-12.184h-170.029c-6.74 0-12.214 5.444-12.252 12.184v44.719z"
            fill="#323c6b" />
        <path
            d="m330.051 3.403h-20.42c8.62 0 15.618 6.968 15.655 15.587v48.122h20.42v-48.122c-.038-8.619-7.036-15.587-15.655-15.587z"
            fill="#5392f9" />
        <g fill="#323c6b">
            <path
                d="m184.921 33.4c-1.88 0-3.403-1.524-3.403-3.403v-26.594c0-1.88 1.524-3.403 3.403-3.403s3.403 1.524 3.403 3.403v26.593c0 1.88-1.524 3.404-3.403 3.404z" />
            <path
                d="m223.017 33.4c-1.88 0-3.403-1.524-3.403-3.403v-26.594c0-1.88 1.524-3.403 3.403-3.403s3.403 1.524 3.403 3.403v26.593c.001 1.88-1.523 3.404-3.403 3.404z" />
            <path
                d="m261.107 33.4c-1.88 0-3.403-1.524-3.403-3.403v-26.594c0-1.88 1.524-3.403 3.403-3.403s3.403 1.524 3.403 3.403v26.593c0 1.88-1.524 3.404-3.403 3.404z" />
            <path
                d="m299.196 33.4c-1.88 0-3.403-1.524-3.403-3.403v-26.594c0-1.88 1.524-3.403 3.403-3.403s3.403 1.524 3.403 3.403v26.593c.001 1.88-1.523 3.404-3.403 3.404z" />
            <path
                d="m392.603 469.653h-97.266c-1.88 0-3.403-1.524-3.403-3.403v-100.397c0-1.88 1.524-3.403 3.403-3.403h97.266c1.88 0 3.403 1.524 3.403 3.403v100.397c0 1.88-1.523 3.403-3.403 3.403zm-93.863-6.806h90.46v-93.59h-90.46z" />
            <path
                d="m392.603 238.23h-97.266c-1.88 0-3.403-1.524-3.403-3.403v-91.48c0-1.88 1.524-3.403 3.403-3.403h97.266c1.88 0 3.403 1.524 3.403 3.403v91.48c0 1.879-1.523 3.403-3.403 3.403zm-93.863-6.807h90.46v-84.673h-90.46z" />
            <path
                d="m392.603 146.75h-97.266c-1.88-.002-3.402-1.528-3.399-3.407.001-.664.196-1.313.561-1.868l50.369-76.234c.605-1.008 1.719-1.598 2.893-1.531 1.16.021 2.23.631 2.838 1.62l46.897 76.234c.985 1.601.486 3.697-1.115 4.682-.537.33-1.154.505-1.784.505h.006zm-90.936-6.807h84.851l-40.914-66.5z" />
            <path
                d="m345.706 70.516h-201.339c-1.88 0-3.403-1.524-3.403-3.403v-48.123c.038-10.499 8.559-18.99 19.058-18.99h170.028c10.499 0 19.021 8.491 19.058 18.99v48.122c.001 1.88-1.523 3.404-3.402 3.404zm-197.935-6.807h194.532v-44.719c-.037-6.74-5.512-12.184-12.252-12.184h-170.029c-6.74 0-12.214 5.444-12.252 12.184v44.719z" />
            <path
                d="m295.337 146.75h-197.867c-1.88.001-3.404-1.523-3.404-3.402 0-.63.175-1.248.505-1.784l46.897-76.234c.62-1.007 1.717-1.62 2.9-1.62h201.338c1.88.002 3.402 1.528 3.399 3.407-.001.664-.196 1.313-.561 1.868l-50.369 76.234c-.628.954-1.695 1.529-2.838 1.531zm-191.782-6.807h189.951l45.869-69.427h-193.109z" />
        </g>
        <path d="m97.47 234.827h197.867v131.026h-197.867z" fill="#eeefee" />
        <path
            d="m295.337 369.256h-197.867c-1.88 0-3.403-1.524-3.403-3.403v-131.026c0-1.88 1.524-3.403 3.403-3.403h197.867c1.88 0 3.403 1.524 3.403 3.403v131.026c0 1.88-1.523 3.403-3.403 3.403zm-194.464-6.806h191.06v-124.22h-191.06z"
            fill="#323c6b" />
        <path d="m295.337 234.827h97.266v131.026h-97.266z" fill="#eeefee" />
        <path
            d="m392.603 369.256h-97.266c-1.88 0-3.403-1.524-3.403-3.403v-131.026c0-1.88 1.524-3.403 3.403-3.403h97.266c1.88 0 3.403 1.524 3.403 3.403v131.026c0 1.88-1.523 3.403-3.403 3.403zm-93.863-6.806h90.46v-124.22h-90.46z"
            fill="#323c6b" />
        <path d="m372.183 234.827h20.42v131.026h-20.42z" fill="#dbd8dd" />
        <path
            d="m172.431 315.941c.228 13.783 11.585 24.772 25.368 24.544 13.462-.222 24.322-11.082 24.544-24.544 0-13.776-24.96-56.154-24.96-56.154s-24.952 42.377-24.952 56.154z"
            fill="#FFF" />
        <path
            d="m197.391 344.297c-15.658-.015-28.348-12.705-28.363-28.363 0-14.294 22.829-53.459 25.429-57.856 1.096-1.618 3.297-2.041 4.915-.945.372.252.693.573.945.945 2.6 4.417 25.429 43.562 25.429 57.856-.014 15.655-12.7 28.344-28.355 28.363zm0-77.697c-7.936 14.049-21.556 40.091-21.556 49.334-.212 11.903 9.267 21.724 21.17 21.936s21.724-9.267 21.936-21.17c.005-.255.005-.511 0-.766.006-9.25-13.614-35.285-21.55-49.334z"
            fill="#898a91" />
        <path
            d="m392.603 369.256h-97.266c-1.88 0-3.403-1.524-3.403-3.403v-131.026c0-1.88 1.524-3.403 3.403-3.403h97.266c1.88 0 3.403 1.524 3.403 3.403v131.026c0 1.88-1.523 3.403-3.403 3.403zm-93.863-6.806h90.46v-124.22h-90.46z"
            fill="#323c6b" />
    </g>
</svg>