<svg id="Capa_1" enable-background="new 0 0 512 512" height="512" viewBox="0 0 512 512" width="512"
    xmlns="http://www.w3.org/2000/svg">
    <g>
        <g>
            <path
                d="m256 453.522c-129.172 0-233.887-104.715-233.887-233.887v-99.807h467.773v99.807c.001 129.172-104.714 233.887-233.886 233.887z"
                fill="#faf8f8" />
        </g>
        <g>
            <path
                d="m458.855 58.478h-405.709c-17.139 0-31.032 13.894-31.032 31.032v30.318h467.773v-30.318c0-17.138-13.894-31.032-31.032-31.032z"
                fill="#d8e4ec" />
        </g>
        <g>
            <path
                d="m458.855 58.478h-30c17.139 0 31.032 13.894 31.032 31.032v30.318h30v-30.318c0-17.138-13.894-31.032-31.032-31.032z"
                fill="#b2c4e6" />
        </g>
        <g>
            <path
                d="m489.119 238.595c-9.819-2.051-19.992-3.136-30.421-3.136-81.738 0-147.999 66.262-147.999 148 0 21.427 4.56 41.787 12.752 60.172 90.472-27.206 157.859-107.71 165.668-205.036z"
                fill="#d8e4ec" />
        </g>
        <g>
            <path
                d="m458.699 235.459c-5.076 0-10.091.257-15.035.755 5.237.527 10.394 1.323 15.456 2.38-7.036 87.7-62.453 161.732-139.54 195.426 1.184 3.257 2.471 6.464 3.873 9.609 90.472-27.206 157.859-107.71 165.668-205.036-9.82-2.049-19.994-3.134-30.422-3.134z"
                fill="#b2c4e6" />
        </g>
        <g>
            <path
                d="m53.302 235.459c-10.428 0-20.602 1.085-30.421 3.136 7.809 97.326 75.196 177.829 165.668 205.036 8.192-18.385 12.752-38.745 12.752-60.172 0-81.738-66.261-148-147.999-148z"
                fill="#d8e4ec" />
        </g>
        <g>
            <path
                d="m127.435 200.321h-103.777c-8.924 0-16.158-7.234-16.158-16.158v-24.913c0-8.924 7.234-16.158 16.158-16.158h103.777c15.803 0 28.614 12.811 28.614 28.615 0 15.803-12.811 28.614-28.614 28.614z"
                fill="#f8e883" />
        </g>
        <g>
            <path
                d="m384.565 200.321h103.777c8.924 0 16.158-7.234 16.158-16.158v-24.913c0-8.924-7.234-16.158-16.158-16.158h-103.777c-15.803 0-28.615 12.811-28.615 28.615.001 15.803 12.812 28.614 28.615 28.614z"
                fill="#f8e883" />
        </g>
        <g>
            <path
                d="m497.387 137.393v-47.883c0-21.247-17.286-38.532-38.532-38.532h-405.709c-21.247 0-38.532 17.285-38.532 38.532v47.883c-8.57 3.559-14.614 12.014-14.614 21.857v24.913c0 9.843 6.044 18.298 14.614 21.857v13.614c0 64.477 25.108 125.094 70.7 170.686s106.209 70.7 170.686 70.7c62.102 0 121.101-23.532 166.129-66.262 3.005-2.851 3.129-7.598.278-10.603-2.851-3.004-7.598-3.129-10.603-.278-24.322 23.081-52.997 40.174-84.065 50.533-6.326-16.234-9.541-33.364-9.541-50.953 0-77.472 63.028-140.499 140.499-140.499 7.459 0 14.939.596 22.277 1.765-4.82 43.009-21.924 84.111-49.371 117.8-2.616 3.211-2.134 7.936 1.077 10.552 1.392 1.134 3.067 1.686 4.733 1.686 2.177 0 4.336-.944 5.819-2.763 34.921-42.862 54.153-96.973 54.153-152.364v-13.614c8.57-3.56 14.613-12.015 14.613-21.857v-24.913c.002-9.843-6.041-18.298-14.611-21.857zm-.387 46.771c0 4.774-3.884 8.658-8.658 8.658h-20.7v-42.229h20.7c4.774 0 8.658 3.884 8.658 8.658zm-112.435 8.658c-11.642 0-21.114-9.472-21.114-21.115s9.472-21.115 21.114-21.115h68.077v42.229h-68.077zm-257.13-42.23c11.642 0 21.114 9.472 21.114 21.115s-9.472 21.115-21.114 21.115h-68.077v-42.229h68.077zm-83.077 42.23h-20.7c-4.774 0-8.658-3.884-8.658-8.658v-24.914c0-4.774 3.884-8.658 8.658-8.658h20.7zm-13.361 51.907c7.347-1.172 14.836-1.77 22.305-1.77 77.472 0 140.499 63.028 140.499 140.499 0 17.625-3.216 34.762-9.555 51.005-32.917-10.959-63.078-29.503-88.325-54.75-36.787-36.785-59.338-84.005-64.924-134.984zm427.702-16.77c-85.743 0-155.499 69.757-155.499 155.499 0 19.043 3.402 37.607 10.11 55.237-18.519 4.825-37.748 7.326-57.309 7.326-19.611 0-38.836-2.492-57.328-7.297 6.716-17.632 10.129-36.193 10.129-55.266 0-85.743-69.757-155.499-155.499-155.499-7.848 0-15.719.599-23.457 1.771-.146-3.353-.231-6.717-.231-10.095v-11.814h97.821c19.914 0 36.114-16.201 36.114-36.115s-16.201-36.115-36.114-36.115h-97.822v-8.264h52.161c4.142 0 7.5-3.358 7.5-7.5s-3.358-7.5-7.5-7.5h-52.161v-22.817c0-12.976 10.557-23.532 23.532-23.532h405.708c12.976 0 23.532 10.556 23.532 23.532v22.818h-370.611c-4.142 0-7.5 3.358-7.5 7.5s3.358 7.5 7.5 7.5h370.612v8.264h-97.821c-19.913 0-36.114 16.201-36.114 36.115s16.201 36.115 36.114 36.115h97.821v11.814c0 3.371-.08 6.737-.231 10.095-7.739-1.172-15.61-1.772-23.457-1.772z" />
        </g>
    </g>
</svg>